# xmcd
#
# Track frame offsets:
#	150
#	18240
#	32903
#	46457
#	57215
#	68043
#	79740
#	92198
#	104954
#	116512
#	130575
#	144395
#	163125
#	175357
#	187838
#	199617
#	210156
#	223634
#	231670
#	241027
#	254727
#	262944
#	272830
#	284472
#
# Disc length: 3934 seconds
#
# Revision: 0
# Processed by: cddbd v1.5.2PL0 Copyright (c) Steve Scherf et al.
# Submitted via: EasyCDDAExtractor 15.2.5.1
#
DISCID=630f5c18
DTITLE=Johnny Cash - Top 40
DYEAR=2016
DGENRE=Country
TTITLE0=A Boy Named Sue
TTITLE1=San Quentin
TTITLE2=If I Were A Carpenter
TTITLE3=Daddy Sang Bass
TTITLE4=Blistered
TTITLE5=Long-Legged Guitar Pickin' Man
TTITLE6=Jackson
TTITLE7=The One on The right Is On The Left
TTITLE8=The Sons Of Katie Elder
TTITLE9=Orange Blossom Special
TTITLE10=It Ain't Me Babe
TTITLE11=The Ballad Of Ira Hayes
TTITLE12=Understand Your Man
TTITLE13=The Matador
TTITLE14=Ring Of Fire
TTITLE15=Bonanza
TTITLE16=Tennessee Flat Top Box
TTITLE17=Five Feet High and Rising
TTITLE18=I Got Stripes
TTITLE19=Don't Take Your Guns To Town
TTITLE20=Guess Things Happen That Way 
TTITLE21=Ballad Of A Teenage Queen
TTITLE22=I Walk The Line
TTITLE23=Big River
EXTD=
EXTT0=
EXTT1=
EXTT2=
EXTT3=
EXTT4=
EXTT5=
EXTT6=
EXTT7=
EXTT8=
EXTT9=
EXTT10=
EXTT11=
EXTT12=
EXTT13=
EXTT14=
EXTT15=
EXTT16=
EXTT17=
EXTT18=
EXTT19=
EXTT20=
EXTT21=
EXTT22=
EXTT23=
PLAYORDER=
